<?xml version="1.0" standalone="no"?>
<!DOCTYPE svg PUBLIC "-//W3C//DTD SVG 20010904//EN"
 "http://www.w3.org/TR/2001/REC-SVG-20010904/DTD/svg10.dtd">
<svg version="1.0" xmlns="http://www.w3.org/2000/svg"
 width="1920.000000pt" height="1920.000000pt" viewBox="0 0 1920.000000 1920.000000"
 preserveAspectRatio="xMidYMid meet">
<metadata>
Created by potrace 1.14, written by Peter Selinger 2001-2017
</metadata>
<g transform="translate(0.000000,1920.000000) scale(0.100000,-0.100000)"
fill="#000000" stroke="none">
<path d="M13925 14950 c-120 -8 -277 -27 -325 -40 -19 -5 -75 -19 -125 -31
-104 -25 -305 -90 -385 -125 -135 -59 -392 -195 -489 -258 -337 -220 -544
-416 -977 -926 -81 -96 -151 -177 -154 -180 -9 -9 -74 -84 -115 -134 -22 -27
-44 -54 -50 -60 -5 -6 -32 -38 -60 -71 -27 -33 -86 -103 -130 -155 -45 -52
-91 -106 -102 -120 -12 -14 -40 -47 -63 -75 -23 -27 -49 -59 -59 -70 -42 -52
-117 -141 -121 -145 -3 -3 -35 -41 -70 -85 -36 -43 -74 -90 -85 -104 -11 -13
-47 -56 -81 -95 -33 -39 -70 -82 -82 -96 -11 -14 -94 -113 -182 -220 -89 -107
-172 -206 -183 -220 -12 -14 -51 -62 -87 -105 -83 -102 -90 -111 -136 -166
-22 -25 -55 -65 -74 -89 -19 -24 -40 -48 -45 -54 -6 -6 -53 -63 -105 -126 -52
-63 -103 -124 -112 -135 -9 -11 -63 -77 -121 -147 -135 -165 -180 -218 -192
-232 -6 -6 -28 -33 -50 -61 -46 -57 -76 -93 -90 -109 -6 -6 -40 -47 -75 -91
-36 -44 -67 -82 -70 -85 -3 -3 -35 -41 -70 -85 -36 -44 -68 -82 -71 -85 -3 -3
-36 -43 -73 -90 -38 -47 -83 -101 -100 -120 -17 -19 -54 -64 -81 -100 -46 -60
-75 -95 -100 -124 -13 -15 -208 -250 -332 -401 -91 -110 -189 -231 -267 -329
-17 -22 -36 -44 -42 -50 -5 -6 -54 -65 -108 -131 -138 -170 -226 -275 -236
-285 -3 -3 -21 -25 -40 -50 -19 -25 -37 -47 -41 -50 -3 -3 -22 -27 -42 -53
-20 -26 -42 -54 -49 -61 -7 -7 -35 -41 -63 -76 -27 -34 -66 -81 -85 -104 -19
-23 -51 -62 -70 -86 -19 -24 -40 -48 -45 -54 -6 -6 -28 -33 -50 -61 -57 -70
-68 -84 -111 -136 -22 -25 -53 -63 -70 -85 -132 -165 -157 -194 -169 -194 -12
0 -73 -17 -160 -45 -22 -7 -69 -20 -105 -30 -36 -9 -74 -21 -85 -25 -11 -5
-38 -13 -60 -18 -22 -6 -64 -18 -92 -26 -201 -60 -209 -63 -273 -80 -30 -8
-80 -22 -110 -31 -30 -9 -77 -22 -105 -30 -27 -7 -77 -21 -110 -30 -33 -9 -73
-21 -90 -26 -57 -16 -150 -40 -190 -50 -22 -5 -49 -13 -60 -18 -11 -5 -40 -14
-65 -21 -25 -6 -88 -22 -140 -36 -52 -14 -115 -30 -140 -35 -25 -6 -52 -14
-60 -18 -9 -5 -36 -12 -60 -16 -24 -4 -51 -11 -60 -16 -8 -4 -35 -13 -60 -19
-25 -6 -88 -23 -140 -37 -52 -14 -117 -31 -145 -37 -27 -7 -57 -15 -65 -18 -8
-4 -33 -11 -55 -16 -22 -6 -67 -18 -100 -27 -117 -33 -131 -37 -180 -49 -27
-7 -57 -15 -65 -19 -8 -3 -35 -10 -60 -16 -25 -5 -70 -16 -100 -24 -30 -9 -82
-23 -115 -32 -33 -9 -73 -20 -90 -25 -16 -5 -55 -16 -85 -24 -53 -14 -114 -32
-210 -60 -107 -32 -214 -62 -282 -79 -25 -7 -50 -15 -54 -20 -4 -4 -16 -7 -26
-7 -10 0 -57 -13 -105 -29 -49 -15 -135 -43 -193 -60 -58 -18 -112 -36 -121
-41 -9 -5 -33 -12 -53 -15 -20 -4 -39 -11 -42 -16 -3 -5 -14 -9 -24 -9 -11 0
-34 -7 -52 -14 -18 -8 -78 -31 -133 -51 -181 -66 -374 -153 -475 -214 -19 -11
-42 -24 -50 -28 -33 -15 -163 -116 -200 -156 -150 -158 -124 -342 75 -540 74
-74 173 -142 245 -171 25 -10 54 -22 65 -27 19 -9 62 -19 165 -39 58 -11 433
-11 525 0 127 15 229 30 275 40 25 5 81 17 125 26 44 10 114 26 155 37 41 10
95 23 120 29 25 5 54 13 65 18 11 5 36 12 55 16 19 3 41 10 50 14 25 13 214
70 231 70 9 0 18 3 22 6 6 6 89 36 277 101 58 19 110 39 115 43 6 4 39 17 75
29 36 13 74 27 85 32 11 4 56 22 100 39 44 17 89 35 100 40 11 5 45 19 75 30
30 12 69 27 85 35 45 20 146 65 185 81 40 17 51 22 135 59 110 49 129 58 221
100 50 24 151 71 225 106 206 96 1029 513 1064 539 6 4 64 36 130 70 66 35
137 74 157 87 21 13 40 23 42 23 3 0 28 14 56 30 28 17 52 30 54 30 2 0 23
-37 46 -82 110 -215 273 -498 292 -506 4 -2 8 -8 8 -12 0 -16 186 -277 280
-394 86 -107 222 -255 336 -368 134 -131 179 -172 274 -248 24 -19 60 -48 80
-65 21 -16 46 -36 56 -43 11 -7 53 -37 95 -66 207 -146 490 -299 749 -406 69
-28 134 -55 145 -60 37 -16 261 -87 360 -114 33 -10 76 -21 95 -27 19 -5 58
-14 85 -20 28 -5 82 -17 120 -25 103 -21 299 -41 470 -48 83 -4 197 -11 255
-17 58 -5 188 -14 290 -19 102 -6 254 -14 337 -20 175 -12 533 7 733 39 36 6
108 15 160 21 52 6 120 15 150 20 30 5 96 16 145 24 123 21 236 42 320 60 86
18 104 22 230 48 55 11 128 27 162 35 35 7 91 20 125 27 35 8 117 28 183 46
66 18 136 36 155 40 86 20 326 96 435 138 87 34 159 62 180 72 97 44 157 70
161 70 8 0 154 73 219 110 434 243 804 544 1110 904 28 32 55 63 60 70 25 26
167 218 227 306 169 248 335 550 452 825 10 22 21 49 26 60 5 11 23 56 40 100
18 44 36 89 41 100 12 29 55 153 96 280 19 61 41 129 49 153 8 23 14 51 14 62
0 10 4 21 9 24 5 3 12 27 16 53 4 27 10 53 13 58 4 6 13 35 20 65 7 30 17 71
22 90 32 120 80 356 119 590 11 69 25 150 30 180 6 30 13 84 16 120 3 36 10
90 15 120 27 151 61 636 68 978 12 523 -8 1100 -53 1572 -8 85 -19 202 -25
260 -5 58 -14 132 -20 165 -5 33 -15 101 -21 150 -13 98 -19 139 -44 290 -29
179 -29 171 -7 196 33 38 193 231 237 283 22 27 52 63 67 80 192 223 227 270
238 316 27 111 -38 200 -160 221 -150 26 -226 39 -310 53 -139 23 -268 45
-325 56 -81 14 -237 41 -277 47 -30 4 -48 18 -100 76 -370 417 -729 692 -1133
867 -107 47 -140 59 -230 85 -33 10 -71 22 -85 26 -35 12 -113 29 -190 40 -36
5 -94 14 -130 19 -90 13 -285 18 -405 10z"/>
</g>
</svg>
